# xmcd
#
# Track frame offsets:
#	150
#	22134
#	46019
#	62940
#	70478
#	86310
#	103596
#	116295
#	134191
#	154619
#	171786
#	194410
#	206890
#	224873
#	241573
#
# Disc length: 3528 seconds
#
# Revision: 0
# Processed by: cddbd v1.5.2PL0 Copyright (c) Steve Scherf et al.
# Submitted via: EasyCDDAExtractor 2010.6.0.0
#
DISCID=de0dc60f
DTITLE=Tykopatti - Luopioisten luja
DYEAR=2008
DGENRE=hip-Hop
TTITLE0=Mä toistan itteeni Feat. Idän ihme aka Kalle Kinos and Hannibal
TTITLE1=Runkatut lakanat
TTITLE2=Luotan meikän miljoonaan
TTITLE3=Lasse Holm vs. Timo Täyspuntillinen
TTITLE4=Vaimomatskuu feat. Soppa
TTITLE5=Bisset blossit feat. Stepa
TTITLE6=Asioita joita joskus tein
TTITLE7=Säteilen
TTITLE8=Tuolla puolen
TTITLE9=Kännissä
TTITLE10=Hillitty, harkittu, huoliteltu feat. Jodarok
TTITLE11=Eläkkeellä feat. Mc Särre
TTITLE12=Kyräilijät feat. Kauhukoira and Hannibal
TTITLE13=Limonaadii 2009
TTITLE14=Muistoissa
EXTD=
EXTT0=
EXTT1=
EXTT2=
EXTT3=
EXTT4=
EXTT5=
EXTT6=
EXTT7=
EXTT8=
EXTT9=
EXTT10=
EXTT11=
EXTT12=
EXTT13=
EXTT14=
PLAYORDER=
